<svg xmlns="http://www.w3.org/2000/svg" viewBox="0 0 64 64" role="img" aria-labelledby="title">
	<title id="title">Diego Alvarado</title>
	<defs>
		<linearGradient id="bg" x1="10" y1="6" x2="54" y2="58" gradientUnits="userSpaceOnUse">
			<stop offset="0" stop-color="#3f6e5c"/>
			<stop offset="0.5" stop-color="#355a4c"/>
			<stop offset="1" stop-color="#284840"/>
		</linearGradient>
		<linearGradient id="monogram" x1="32" y1="14" x2="32" y2="52" gradientUnits="userSpaceOnUse">
			<stop offset="0" stop-color="#fdfffc"/>
			<stop offset="1" stop-color="#e4eae4"/>
		</linearGradient>
	</defs>
	<rect width="64" height="64" rx="16" fill="url(#bg)"/>
	<rect width="64" height="64" rx="16" fill="none" stroke="rgba(253,255,252,0.14)" stroke-width="1"/>
	<g fill="url(#monogram)" fill-rule="evenodd">
		<path
			d="M9.5 11.5V52.5H21.5C33.8 52.5 41 43.8 41 32C41 20.2 33.8 11.5 21.5 11.5H9.5ZM16.2 19.2V44.8H21C27.6 44.8 32.2 39.4 32.2 32C32.2 24.6 27.6 19.2 21 19.2H16.2Z"
		/>
		<path
			d="M41.8 52.5L50 10.8L58.2 52.5H41.8ZM46.1 35.8H53.9L53.05 41.5H46.95L46.1 35.8Z"
		/>
	</g>
</svg>
